<svg width="99" height="104" viewBox="0 0 99 104" fill="none" xmlns="http://www.w3.org/2000/svg">
<path id="Arrow 1" d="M91.0078 59C94.8738 59 98.0078 55.866 98.0078 52C98.0078 48.134 94.8738 45 91.0078 45V59ZM2.05212 47.0503C-0.681557 49.7839 -0.681557 54.2161 2.05212 56.9497L46.5998 101.497C49.3335 104.231 53.7657 104.231 56.4993 101.497C59.233 98.7638 59.233 94.3316 56.4993 91.598L16.9014 52L56.4993 12.402C59.233 9.66835 59.233 5.23619 56.4993 2.50253C53.7657 -0.231144 49.3335 -0.231144 46.5998 2.50253L2.05212 47.0503ZM91.0078 45H7.00186V59H91.0078V45Z" fill="white"/>
</svg>
